<svg width="266" height="209" viewBox="0 0 266 209" fill="none" xmlns="http://www.w3.org/2000/svg">
<g clip-path="url(#clip0_73_2820)">
<path d="M312.965 195.252C312.372 180.9 301.823 169.155 288.423 164.919C281.812 162.829 274.654 162.487 268.005 164.604C261.394 166.707 255.434 171.18 252.224 177.408C248.75 184.151 248.869 193.071 252.542 199.728C255.978 205.953 263.369 209.995 270.492 209.119C276.415 208.391 281.669 204.81 283.22 198.865C284.21 195.074 283.277 190.835 280.307 188.169C279.05 187.039 277.54 186.306 275.938 185.801C275.816 185.764 275.7 185.761 275.592 185.777C275.266 185.683 274.932 185.605 274.589 185.545C269.729 184.723 265.106 188.007 264.286 192.866C263.827 195.573 264.647 198.204 266.301 200.146C264.502 199.002 262.97 197.43 262.15 195.454C260.299 190.986 261.664 185.384 264.483 181.622C267.714 177.314 272.693 175.696 277.931 175.728C287.422 175.785 295.595 182.28 299.242 190.808C302.656 198.792 301.418 208.385 297.062 215.773C293.459 221.885 287.665 226.329 281.13 228.898C275.131 230.53 268.634 230.484 262.595 229.384C253.732 227.769 245.025 223.856 238.296 217.814C235.223 215.058 232.532 211.772 230.781 208.016C228.782 203.732 227.903 198.903 227.93 194.192C227.96 189.485 229.004 184.642 231.477 180.595C232.666 178.648 234.225 176.917 236.078 175.583C238.123 174.108 240.44 173.323 242.811 172.544C245.114 171.786 247.695 171.018 249.448 169.246C250.743 167.939 251.444 165.698 250.929 163.897C250.592 162.716 249.702 161.991 248.623 161.613C250.131 161.408 251.639 161.206 253.133 160.939C257.411 160.179 261.839 159.168 265.729 157.181C268.979 155.52 271.711 152.813 272.259 149.062C272.658 146.336 271.603 143.33 269.206 142.09C269.963 141.729 270.697 141.316 271.39 140.831C274.063 138.957 276.504 136.598 278.449 133.977C282.414 128.625 284.097 122.051 283.134 115.454C282.67 112.283 281.734 109.193 280.226 106.362C278.891 103.857 277.265 101.525 275.665 99.1844C274.363 97.2754 272.952 95.2451 271.784 93.1097C271.784 93.1097 271.784 93.107 271.781 93.1043C267.504 86.5309 269.281 81.9176 270.292 80.1758C265.397 82.1467 263.126 88.9629 263.679 93.7838C264.332 99.4863 268.496 104.054 268.639 109.894C268.739 113.96 266.999 117.381 263.779 119.819C260.547 122.264 256.715 123.68 253.179 125.6C252.852 125.775 252.529 125.958 252.205 126.144C251.566 123.674 249.386 122.356 246.695 122.593C242.983 122.919 239.409 125.214 236.575 127.473C229.896 132.793 225.411 140.658 222.128 148.413C220.491 152.282 219.24 156.259 218.139 160.311C216.971 164.612 215.928 168.953 215.291 173.366C214.638 177.904 214.42 182.517 214.797 187.09C215.148 191.348 215.841 195.842 217.395 199.844C217.959 201.297 219.291 205.309 222.414 209.407C225.198 213.061 228.866 216.862 231.547 219.47C204.632 201.464 207.863 176.844 207.971 176.044C208.788 171.412 209.967 166.823 211.639 162.436C213.336 157.987 215.135 153.579 216.432 148.992C217.654 144.665 218.625 139.847 217.419 135.409C216.265 131.154 212.497 128.156 208.119 127.721C206.819 127.592 205.605 127.705 204.478 128.013C205.433 126.479 206.366 124.944 207.528 123.521C208.993 121.73 210.625 120.102 212.478 118.713C215.688 116.308 219.429 114.666 223.329 113.766C227.205 112.871 231.207 112.879 235.078 111.946C238.708 111.069 242.147 109.546 245.111 107.26C248.157 104.909 250.98 101.724 252.939 98.2838L253.767 96.7038L252.229 96.8899C251.161 97.0166 250.093 97.119 249.017 97.1837C245.907 97.3671 242.789 97.235 239.685 97.0408C238.425 96.9627 237.136 96.8144 235.836 96.6634C243.396 95.0726 250.716 92.7619 256.715 87.5042C260.461 84.2202 263.595 80.1866 265.626 75.6218C267.38 71.6853 268.181 67.3228 268.453 63.0384C268.674 59.5495 268.407 56.0659 267.404 52.7064C266.328 49.1015 264.434 45.7851 262.185 42.7896C256.121 34.717 248.073 28.6989 239.436 23.6354C234.455 20.7153 229.263 18.0757 224.823 14.336C222.652 12.5053 220.526 10.4184 219.151 7.90815C218.665 7.02108 217.861 5.29009 217.578 3.80176C217.273 2.20558 217.646 0.0243113 217.524 0.00543755C217.452 -0.03231 215.965 1.86316 214.935 3.61302C213.799 5.54354 212.953 8.26945 212.677 9.95461C211.96 14.363 213.999 18.7794 216.704 22.1713C220.812 27.3212 226.328 30.8344 232.019 34.0537C235.469 37.7934 237.365 42.6736 237.352 47.9017C237.343 51.1776 236.575 54.4509 235.078 57.3682C233.511 60.4204 231.178 62.9764 228.699 65.314C226.29 67.587 223.58 69.7116 221.373 72.2138C221.972 69.8761 222.034 67.4279 221.508 65.0579C221.19 63.6181 220.667 62.2161 219.979 60.9111C219.83 60.628 219.267 59.3041 218.517 58.3119C217.94 57.5462 217.147 57.0527 216.974 56.9422C216.828 56.8478 217.05 57.228 216.993 58.1393C216.928 59.1288 216.586 60.6765 216.435 61.0782C215.429 63.7583 213.249 66.0852 211.272 67.9779C207.882 71.2242 204.038 73.9528 200.313 76.7947C196.634 79.6015 193.044 82.4865 190.253 86.2208C187.108 90.4269 184.947 95.4042 183.971 100.562C183.308 104.07 183.081 107.815 183.405 111.471C182.647 110.209 181.484 109.244 179.912 108.88C177.018 108.214 174.237 110.004 172.476 112.161C168.228 117.365 167.488 124.961 167.472 131.421C167.464 135.549 167.966 139.658 168.678 143.735C166.593 139.876 158.825 126.303 148.63 118.023C148.535 117.948 148.441 117.867 148.344 117.794C145.644 115.634 143.378 114.351 141.485 113.674C141.501 113.696 141.52 113.717 141.536 113.736C141.471 113.698 141.406 113.661 141.342 113.623C140.279 113.256 139.335 113.084 138.496 113.054C138.564 113.102 138.628 113.154 138.696 113.205C137.914 113.132 137.129 113.159 136.382 113.321C133.684 114.162 132.638 116.713 132.387 117.484C132.387 117.484 125.275 109.131 110.065 102.509C106.675 101.325 103.271 100.185 100.002 98.6883C95.3463 96.5582 90.8312 93.5869 87.8939 89.3107C86.281 86.9622 85.1293 84.0314 84.7274 81.2138C84.6006 80.3322 84.3606 75.8186 84.3606 75.8186C84.3606 75.8186 82.9014 76.943 82.8097 77.0266C77.7066 81.6345 77.1914 88.9359 78.923 95.3125C78.1327 94.5549 77.2669 93.8727 76.3121 93.2904C73.4396 91.5459 70.2407 90.5537 66.996 89.7529C63.5813 88.9116 60.0291 88.1405 56.9435 86.3826C56.6657 86.2262 56.3933 86.0563 56.1208 85.8838C55.3359 85.3256 44.4446 77.3447 48.2153 65.2035C49.4776 62.2996 51.719 59.8299 55.4142 58.3901C58.818 57.0635 63.9212 57.8697 65.3507 61.6364C62.907 58.6867 58.2948 58.9806 55.843 61.8844C54.0844 63.9659 53.6583 66.9965 54.0224 69.62C54.4459 72.664 56.1559 75.5167 58.6994 77.2611C64.1936 81.0278 71.3574 79.1 75.5191 74.3249C79.7241 69.5013 80.2473 62.3509 77.4584 56.686C74.7855 51.2612 69.1537 47.2707 63.2495 46.1491C57.9414 45.1407 52.4985 46.6533 48.0292 49.5545C46.1358 50.7839 44.4096 52.275 42.891 53.9574C40.7845 52.9409 26.5756 60.4311 30.6161 81.8205C33.7745 98.5265 43.8809 105.701 46.1007 107.074C35.5573 109.489 30.5217 116.71 30.5217 116.71C30.2546 116.996 33.5668 115.556 36.5337 115.251C39.3038 114.968 41.6584 115.801 43.6651 116.446C47.595 117.708 51.0339 119.999 54.5618 122.073C57.2024 123.623 59.8727 124.982 62.7371 125.945C61.6852 129.31 62.551 132.971 64.6926 135.748C68.4147 140.58 75.1361 141.537 80.8138 140.043C80.7274 140.119 80.625 140.181 80.5548 140.27C74.8826 147.304 74.861 150.78 75.4706 158.615C75.6135 158.672 79.2494 154.452 80.9648 153.649C82.6775 152.845 84.5952 152.662 86.4671 152.764C90.0301 152.958 93.5419 153.84 97.1292 153.508C98.6989 153.366 100.174 152.953 101.582 152.368C101.577 152.438 101.566 152.511 101.563 152.581C101.453 154.902 102.809 157.116 104.722 158.351C108.66 160.891 113.73 160.082 117.795 158.308C121.088 156.871 123.996 154.757 127.033 152.869C126.181 154.789 125.973 157.038 126.426 159.057C126.944 161.355 128.214 163.272 129.895 164.784C129.706 164.814 129.517 164.838 129.331 164.87C122.782 165.919 116.368 167.834 110.354 170.64C103.902 173.652 98.0543 177.64 92.8352 182.482C90.432 184.712 88.1394 187.079 86.0032 189.563C84.722 191.051 83.4732 192.564 82.1219 193.99C80.3579 195.853 78.4861 197.603 76.3148 198.989C75.5272 199.49 73.6796 200.437 72.2744 200.396C70.6777 200.348 69.5583 199.288 69.5017 199.558C69.0944 201.515 70.47 204.284 72.2259 205.023C73.2292 205.446 74.2569 205.535 75.2683 205.395C72.5118 207.318 69.4019 209.054 65.8739 210.531C53.2375 215.819 42.9854 214.7 36.4447 212.715C35.1069 212.308 30.3113 211.065 26.0847 207.981C22.5568 205.406 19.4577 201.014 18.7645 199.798C14.983 193.149 14.9669 184.553 18.3465 177.942C20.0106 174.69 22.6054 171.641 26.0767 170.241C27.7031 169.586 29.4832 169.276 31.2553 169.381C31.3955 169.389 31.5385 169.403 31.6788 169.416C33.6936 169.845 35.6409 170.67 37.4157 171.954C40.5094 174.191 42.651 177.279 43.2336 181.029C43.6651 183.804 43.2066 186.675 41.9254 189.123C42.33 187.454 42.2761 185.645 41.6719 183.879C40.0158 179.05 34.8453 176.292 29.9957 177.562L30.0308 177.54C27.6383 178.166 23.4954 180.344 22.7969 185.243C22.0443 190.525 25.022 194.254 25.0895 194.365V194.351C26.047 195.856 27.3201 197.021 28.1211 197.641C29.9121 199.029 32.2694 199.889 34.4407 200.323C39.4737 201.332 44.8924 200.598 49.1836 197.91C56.4742 193.346 59.0743 183.847 57.1404 175.65C56.1181 171.317 53.8822 167.338 50.5268 164.31C47.069 161.19 42.5674 159.392 38.0091 158.831C28.7118 157.688 19.0235 161.371 12.8981 168.16C10.0256 171.344 8.02156 175.227 6.96695 179.392C6.65677 180.617 6.27377 183.475 6.12003 185.99C5.99595 188.004 6.06608 189.787 6.09305 190.439C6.16048 192.086 6.55428 194.335 6.64328 194.923C7.42817 200.021 10.2279 205.859 13.7315 209.86C14.1604 210.351 17.2595 213.729 22.3248 216.687C23.3633 217.294 24.4556 217.857 25.5723 218.38C25.3565 218.512 25.1488 218.658 24.9654 218.839C24.3127 219.486 24.1535 220.222 24.256 220.979C20.3127 218.51 15.7652 217.79 11.3283 216.773C10.2629 216.528 9.20563 216.245 8.15102 215.956C7.10451 215.671 6.09845 215.428 5.11127 214.956C3.98114 214.414 2.32236 213.222 1.24887 212.101C0.453196 211.27 0.0594037 210.383 0.0270373 210.332C-0.0916398 210.135 0.455893 212.335 0.790347 213.282C0.957573 213.751 1.01421 214.228 1.16256 214.7C1.30551 215.153 1.46195 215.598 1.63727 216.04C2.30887 217.741 3.01015 219.435 3.85437 221.066C6.80781 226.771 12.3236 230.815 18.4705 232.546C20.2615 233.051 22.0821 233.344 23.9162 233.485C22.4759 234.261 21.2918 235.431 20.9735 237.095C20.6795 238.64 21.9742 240.891 23.5251 241.549C23.7382 241.641 23.517 240.374 24.221 239.268C24.8413 238.295 26.3518 237.494 27.0665 237.197C29.0328 236.383 31.1177 235.946 33.2323 235.639C34.8507 235.404 36.4825 235.275 38.1116 235.116C40.8304 234.849 43.5384 234.423 46.2005 233.854C51.9833 232.622 57.464 230.554 62.5402 227.612C66.5159 225.31 70.176 222.511 73.472 219.34C73.3587 223.883 74.3405 228.429 76.5764 232.465C77.6365 234.377 78.8556 236.194 80.1071 237.985C80.4335 238.451 80.7706 238.901 81.1293 239.344C81.5015 239.802 81.9412 240.177 82.2999 240.654C83.0201 241.611 84.8569 243.612 84.7436 243.366C84.7139 243.302 84.0909 242.323 83.8023 240.991C83.4112 239.193 83.3518 236.777 83.5838 235.307C83.7861 234.024 84.2365 232.881 84.6681 231.665C85.1023 230.438 85.5447 229.217 86.0302 228.009C88.0585 222.988 90.4644 218.057 90.6882 212.548C91.3787 213.152 92.4198 213.352 93.5203 213.144C95.2789 212.813 96.6976 211.483 97.6794 210.1C98.8284 208.482 99.3328 206.641 99.7212 204.699C100.199 202.3 100.441 201.407 100.973 199.798C102.869 194.047 106.367 188.517 110.569 184.127C114.939 179.56 120.252 176.402 125.765 173.431C128.951 171.716 132.646 170.705 136.152 169.888C137.838 169.495 139.613 169.079 141.38 168.893C141.406 168.866 141.433 168.842 141.46 168.815C142.669 168.81 143.877 168.718 145.069 168.556C147.864 168.173 150.655 167.489 153.493 167.753C158.051 168.179 162.102 170.557 165.398 173.628C166.043 174.226 166.66 174.868 167.257 175.537C164.689 174.531 162.029 173.747 159.329 173.234C150.982 171.652 142.183 172.598 134.685 176.723C126.154 181.417 120.468 189.757 118.251 199.137C117.07 204.139 116.832 209.48 117.881 214.527C118.707 218.491 120.401 221.885 122.693 225.191C125.15 228.734 127.958 232.123 129.728 236.087C130.084 236.882 130.771 238.341 131.095 240.053C131.446 241.913 131.416 244.003 131.416 244.003C131.416 244.003 132.848 242.895 134.073 241.075C135.548 238.88 136.894 235.782 137.39 234.043C137.868 232.377 138.008 230.619 137.83 228.893C138.774 228.737 139.616 227.674 140.139 227.024C141.131 225.787 141.841 224.471 142.221 222.915C143.162 219.057 142.083 215.183 139.723 212.074C139.157 211.327 138.542 210.618 137.922 209.914C138.094 209.984 138.267 210.054 138.442 210.114C140.608 210.879 143.071 211.063 145.215 210.114C147.939 208.908 149.663 206.145 150.825 203.524C152.228 200.361 153.021 196.851 155.006 193.971C156.557 191.725 158.814 190.113 161.447 189.396C166.687 187.967 172.516 189.905 177.18 192.27C178.415 192.895 179.62 193.586 180.794 194.324C175.99 192.496 170.401 192.213 165.654 193.383C162.167 194.243 158.89 196.018 156.519 198.752C153.342 202.418 151.292 207.638 151.696 212.513C151.931 215.355 153.15 218.005 153.423 220.839C153.574 222.414 153.935 224.339 153.255 225.811C152.705 227 151.356 229.227 151.356 229.227C151.356 229.227 154.148 229.184 156.435 227.335C157.851 226.191 158.871 223.924 159.364 222.665C159.75 221.683 160.05 220.661 160.268 219.629C160.565 218.218 160.519 216.727 160.907 215.344C161.412 213.551 162.644 211.648 164.139 210.362C163.095 213.209 163.591 216.601 166.259 218.477C168.489 220.047 171.607 220.553 174.253 220.003C177.414 219.346 180.036 217.35 183.043 216.28C186.25 215.139 189.711 214.783 193.098 214.913C196.564 215.045 199.793 215.954 203.062 217.021C205.106 217.69 207.172 218.318 209.136 219.208C210.299 219.736 211.385 220.408 212.502 221.025C213.182 221.4 213.862 221.778 214.539 222.158C215.164 222.632 215.795 223.093 216.435 223.549C216.502 223.6 216.54 223.627 216.54 223.627H216.548C224.553 229.346 233.503 233.752 242.894 236.653C255.053 240.409 269.027 242.115 281.338 238.079C285.823 236.607 290.093 234.353 293.769 231.376C298.824 227.917 303.279 223.56 306.61 218.407C311.066 211.516 313.316 203.462 312.976 195.249L312.965 195.252ZM265.972 193.151C266.635 189.223 270.373 186.567 274.303 187.23C278.233 187.894 280.89 191.631 280.224 195.559C279.973 197.042 279.282 198.344 278.311 199.356C276.399 201.24 275.358 201.146 273.704 201.556C273.114 201.604 272.507 201.583 271.895 201.48C267.965 200.817 265.308 197.08 265.974 193.151H265.972ZM225.969 207.579C225.586 206.797 224.343 203.564 223.736 200.377C222.911 196.053 222.781 191.361 223.105 188.808C223.445 186.149 224.289 182.075 225.513 178.775C226.962 174.874 228.788 171.937 228.712 172.042C225.157 176.99 222.714 182.536 221.837 188.592C221.697 189.552 221.597 190.528 221.527 191.512C220.872 183.094 222.587 174.577 225.751 166.655C228.855 158.885 234.409 152.446 239.997 146.328C240.413 145.873 240.831 145.42 241.257 144.975C241.419 144.805 237.891 147.199 234.19 151.006C231.285 153.994 228.316 158.108 226.671 160.786C223.631 165.731 221.762 171.652 220.553 177.297C219.242 183.429 218.978 189.805 220.076 195.993C220.799 200.07 222.058 204.079 223.82 207.854C222.433 205.667 221.211 203.359 220.162 201.006C219.79 200.167 218.425 196.169 218.08 192.011C217.746 187.983 218.423 183.817 218.673 181.695C219.601 173.849 221.141 165.747 224.521 158.548C225.268 156.957 226.363 154.795 227.644 152.837C229.527 149.96 231.566 147.485 231.458 147.585C225.592 153.023 221.975 160.3 219.696 167.879C218.433 172.08 217.6 176.429 217.066 180.781C216.942 181.789 216.826 182.809 216.723 183.83C216.688 181.73 216.764 179.643 216.931 177.605C217.268 173.498 218.013 169.441 218.959 165.434C219.868 161.586 220.853 157.723 222.15 153.986C224.739 146.528 228.324 139.04 233.489 133.006C236.219 129.816 239.633 126.937 243.52 125.268C245.012 124.626 246.773 124.041 248.418 124.34C249.794 124.591 250.641 125.556 251.204 126.74C250.813 126.983 250.425 127.233 250.045 127.492C249.432 125.945 246.865 125.861 245.478 126.123C243.21 126.549 241.384 128.018 239.52 129.283C239.369 129.385 242.363 127.87 243.957 127.425C244.699 127.217 245.675 127.093 246.449 127.074C247.587 127.047 248.372 127.29 248.86 128.344C246.592 130.067 244.626 132.162 243.466 134.77C243.42 134.869 246.74 131.219 249.047 129.838C253.675 127.069 259.633 125.05 264.021 122.057C267.166 119.913 269.632 116.942 270.322 113.119C270.748 110.759 270.576 108.249 269.961 105.941C269.23 103.21 267.806 100.74 266.708 98.1517C265.313 94.865 264.885 91.6187 265.767 88.1216C266.131 86.6818 266.689 85.3553 267.431 84.1501C267.35 84.5976 267.288 85.0479 267.218 85.4766C267.059 86.45 266.929 87.4287 266.872 88.4155C266.767 90.1843 266.889 91.9449 267.231 93.684C267.941 97.2943 269.381 100.683 270.675 104.108C271.94 107.448 272.534 110.846 271.598 114.353C271.266 115.599 270.764 117.263 269.772 118.719C268.286 120.9 266.236 122.709 266.279 122.68C269.041 120.916 271.112 118.673 272.234 115.559C273.33 112.52 273.321 109.39 272.388 106.319C271.239 102.539 269.443 98.9714 268.626 95.0861C268.461 94.3095 268.332 93.5222 268.237 92.7322C269.381 96.7928 271.479 100.867 272.688 104.407C273.424 106.561 273.977 108.786 274.052 111.072C274.136 113.563 273.51 116.02 272.493 118.282C270.457 122.812 266.681 126.017 262.641 128.733C258.09 131.793 253.092 134.427 249.23 138.38C249.003 138.612 258.05 133.478 262.376 130.949C266.554 128.503 270.487 125.524 273.057 121.348C275.66 117.12 276.572 112.253 275.485 107.408C274.805 104.383 273.605 101.541 272.394 98.699C272.804 99.3434 273.208 99.9878 273.594 100.635C275.552 103.916 277.197 107.421 278.139 111.134C279.118 115.001 279.261 119.164 278.198 123.03C277.143 126.864 274.781 130.067 271.781 132.623C268.35 135.549 259.978 139.617 260.178 139.547C267.563 136.913 275.166 133.37 278.532 125.775C281.386 119.339 280.396 112.218 277.785 105.89C278.719 107.54 279.53 109.252 280.1 111.08C282.171 117.735 281.731 124.861 278.079 130.879C276.375 133.691 274.063 136.134 271.498 138.178C269.343 139.892 267.021 140.912 264.383 141.658C261.451 142.486 258.441 143.055 255.577 144.115C252.477 145.261 249.877 146.938 247.76 149.496C247.674 149.599 250.144 147.515 253.044 146.474C256.747 145.145 261.335 144.444 263.593 143.961C263.943 144.042 264.289 144.166 264.631 144.363C265.718 144.986 266.8 146.479 267.131 147.676C267.455 148.841 267.231 150.144 266.363 151.395C265.233 153.026 263.334 154.474 263.444 154.431C266.104 153.382 269.014 150.233 268.243 147.153C267.889 145.738 266.899 144.26 265.694 143.406C266.052 143.298 266.409 143.187 266.765 143.069C266.856 143.131 266.964 143.179 267.096 143.209C270.133 143.88 271.112 146.824 270.384 149.634C269.394 153.463 265.839 155.477 262.39 156.784C258.581 158.227 254.554 159.084 250.554 159.812C247.153 160.432 243.701 160.88 240.402 161.958C236.693 163.175 233.834 165.515 231.426 168.545C231.369 168.618 232.939 166.887 234.897 165.628C235.919 164.973 237.745 163.784 239.819 163.32C241.891 162.859 244.208 163.123 244.782 163.377C245.654 163.76 246.339 164.617 246.533 164.941C247.156 165.976 246.875 167.154 246.9 167.06C247.088 166.272 247.547 165.358 247.337 164.66C247.226 164.288 246.875 163.587 246.236 163.123C245.532 162.611 244.529 162.352 244.321 162.269C244.469 162.242 244.618 162.215 244.766 162.188C246.449 162.252 248.855 162.541 249.322 164.245C249.888 166.31 248.313 168.195 246.622 169.093C244.229 170.363 241.516 170.91 239.005 171.891C229.824 175.48 225.999 185.432 226.012 194.675C226.021 199.401 226.94 204.29 228.923 208.596C230.676 212.403 233.276 215.749 236.313 218.62C242.9 224.846 251.506 228.933 260.316 230.861C261.192 231.053 262.082 231.223 262.983 231.374C261.206 231.231 259.428 230.999 257.656 230.689C251.032 229.524 244.561 227.119 239.048 223.223C233.354 219.2 228.987 213.762 225.967 207.579H225.969ZM223.482 25.9164C221.362 24.2259 219.315 22.3816 217.7 20.195C216.219 18.1917 214.789 15.7138 214.396 13.2198C214.053 11.0547 214.361 8.81948 215.04 6.68136C215.197 8.45819 215.876 10.2701 216.594 11.6883C218.164 14.7863 220.575 17.461 223.34 19.5452C224.739 20.5994 229.848 23.2849 234.234 25.5821C238.339 27.731 241.78 29.5348 241.71 29.4701C237.028 25.2073 230.484 23.053 225.5 19.1704C222.921 17.1617 220.583 14.8887 218.824 12.1143C217.972 10.7716 217.287 9.32099 216.896 7.77604C216.637 6.75146 216.599 5.75924 216.605 4.75084C216.664 5.1391 216.739 5.52197 216.828 5.89136C217.368 8.16699 218.487 10.1649 219.979 11.9498C223.089 15.6761 227.159 18.5287 231.294 21.0038C235.633 23.603 240.111 25.9623 244.335 28.7529C248.704 31.6406 252.726 34.9543 256.351 38.7344C261.67 44.2806 266.101 50.7893 266.665 58.6516C266.781 60.2828 266.783 61.9141 266.67 63.5372C266.635 62.9063 266.584 62.2781 266.511 61.6606C265.645 54.2271 262.106 47.3921 257.055 41.9402C254.12 38.7721 250.802 35.9896 247.337 33.4228C247.231 33.3446 251.671 37.2353 255.706 42.0157C257.891 44.6041 259.903 47.7534 261.133 49.9886C264.582 56.2654 266.036 63.8095 264.672 70.8764C264.199 73.3138 263.38 75.6703 262.341 77.9271C261.297 79.739 260.073 81.4538 258.668 83.0365C254.897 87.2885 250.155 90.4431 244.877 92.5138C242.341 93.5088 239.73 94.261 237.095 94.9351C242.007 93.0288 246.66 90.4296 250.668 87.0674C257.314 81.4916 261.357 73.3974 261.313 64.6669C261.27 55.9715 256.448 48.3627 250.001 42.8516C241.972 35.9869 231.728 32.4872 223.482 25.9164ZM57.3103 90.9878C55.8592 89.974 53.9793 88.5611 53.0541 87.6336C52.0858 86.663 51.5356 85.5845 50.748 84.4682C52.0022 85.6788 53.313 86.8382 54.7803 87.7873C57.8875 89.796 61.4397 90.7262 65.0081 91.5378C68.4686 92.3251 72.064 92.9641 75.244 94.6223C76.8974 95.4851 78.3512 96.658 79.5569 98.0789C79.7457 98.3 79.9291 98.5292 80.1071 98.7584C80.2473 99.0873 80.3903 99.4162 80.5386 99.7344C80.6196 99.907 80.8731 100.365 81.1968 100.929C81.008 100.716 80.8192 100.503 80.633 100.29C78.8259 98.211 76.5872 96.542 74.0411 95.4851C70.9474 94.2017 67.7161 93.7433 64.4228 93.3928C64.3581 93.3847 70.826 94.9459 73.6257 96.3587C76.3661 97.7419 78.3081 99.7263 80.3013 101.997C80.5845 102.32 80.8623 102.649 81.1374 102.986C78.8987 101.239 76.6682 100.109 74.8233 99.5079C72.1072 98.6235 70.2164 98.8015 70.2164 98.8015C75.155 100.139 75.9696 100.198 84.776 107.966C91.376 113.787 98.6153 115.37 99.794 115.596C99.9558 115.642 100.021 115.656 99.9612 115.626C95.8723 113.693 91.4974 110.649 88.339 107.416C83.1118 102.067 79.805 94.9459 80.5602 87.2912C81.0026 92.9587 83.6431 98.5022 87.2331 102.827C91.0308 107.405 96.1636 110.444 101.642 112.563C101.812 112.628 96.1204 109.241 93.6606 107.268C89.2452 103.719 85.6229 99.0388 83.6269 93.7164C82.6667 91.1576 82.0356 88.3913 82.0248 85.6465C82.0248 85.5845 82.0248 85.5225 82.0275 85.4604C82.1327 86.059 82.2622 86.6522 82.4051 87.2373C83.1091 90.1007 84.277 92.8185 85.8602 95.3072C88.8784 100.055 93.5392 103.385 98.8068 105.259C98.9282 105.302 95.5432 103.366 92.5412 100.832C90.3295 98.9633 88.5574 96.7335 87.3464 94.9027C85.8171 92.592 84.6762 90.0009 83.9857 87.3182C83.6485 86.0132 83.3734 84.6516 83.3168 83.3008C83.306 83.0257 83.3114 82.7534 83.3276 82.4784C83.7807 85.6519 84.7975 88.7121 86.5669 91.376C92.8972 100.905 105.237 103.094 115.157 106.96C120.376 108.993 125.204 111.795 129.15 115.812C130.971 117.664 132.724 119.892 134.267 122.267C134.343 122.394 134.423 122.518 134.507 122.636C136.05 125.06 137.366 127.622 138.299 130.089C138.31 130.118 138.173 129.177 137.76 127.978C137.536 127.328 137.107 125.796 136.382 124.189C135.907 123.138 135.114 122.084 134.844 121.124C134.572 120.15 134.631 119.304 134.833 118.84C135.551 117.201 137.706 117.279 139.133 117.7C142.113 118.579 147.392 122.156 147.273 122.035C145.868 120.614 144.279 119.328 142.566 118.295C140.951 117.322 139.154 116.319 137.215 116.349C135.864 116.37 134.537 117.034 133.911 118.206C133.935 117.519 134.205 116.823 134.521 116.411C135.413 115.235 136.98 114.868 138.386 115.025C141.46 115.365 144.395 117.427 146.763 119.29C151.246 122.817 155.133 127.239 158.574 131.763C162.097 136.395 165.188 141.373 167.853 146.544C168.678 148.146 169.452 149.774 170.188 151.413C170.302 151.947 170.412 152.478 170.526 153.012C171.006 155.299 171.523 157.577 172.082 159.845C170.79 156.803 169.363 153.819 167.772 150.917C163.265 142.702 157.258 134.964 149.984 129.029C149.765 128.851 157.271 137.064 160.341 141.4C165.846 149.17 169.973 157.965 173.107 166.933C173.884 169.158 177.789 179.988 177.789 179.988C177.789 179.988 174.93 174.62 173.927 172.169C173.916 172.142 173.905 172.123 173.894 172.099C173.39 170.851 172.877 169.605 172.352 168.365C171.043 165.286 169.673 162.234 168.209 159.227C165.298 153.263 161.849 147.649 158.002 142.246C157.93 142.144 164.503 153.705 167.292 159.632C168.67 162.562 169.973 165.531 171.221 168.518C168.16 163.22 164.983 158.262 164.341 157.432C163.882 156.841 163.413 156.259 162.938 155.679C162.215 154.56 161.387 153.508 160.543 152.462C159.033 150.588 157.522 148.731 156.141 146.76C154.628 144.597 152.654 141.405 150.947 138.628C149.447 136.188 148.101 133.996 148.147 134.095C150.162 138.544 152.179 142.931 154.906 147C154.499 146.628 154.086 146.264 153.673 145.902C151.78 143.845 149.949 141.726 148.257 139.496C146.528 137.218 144.017 133.483 142.291 130.307C140.581 127.161 139.645 124.561 139.664 124.661C140.851 130.331 143.532 135.489 147.003 140.1C147.365 140.58 147.734 141.054 148.109 141.524C147.796 141.292 147.486 141.06 147.17 140.833C147.001 140.685 145.045 138.784 144.268 137.948C142.771 136.333 139.775 132.855 139.831 132.955C140.794 134.64 141.76 136.285 142.941 137.814C140.605 136.177 138.82 133.979 136.978 131.752C133.115 127.08 129.315 122.259 124.328 118.713C119.745 115.456 114.631 113.261 109.145 112.07C109.051 112.048 115.211 114.362 118.049 115.904C123.357 118.789 127.667 122.981 131.564 127.538C133.439 129.73 135.219 132.003 137.077 134.209C136.454 133.723 135.842 133.222 135.249 132.693C133.239 130.89 131.327 128.975 129.355 127.128C127.392 125.287 125.382 123.472 123.114 122.011C120.541 120.353 114.942 117.589 114.99 117.619C115.872 118.185 116.937 118.7 117.833 119.242C119.627 120.331 121.242 121.453 122.874 122.79C124.999 124.529 127.006 126.4 128.951 128.339C130.769 130.151 132.562 131.984 134.467 133.704C132.843 132.852 131.171 131.933 129.531 130.938C124.784 128.059 120.258 124.103 118.62 123.135C114.502 120.703 111.468 119.959 111.608 120.024C116.144 122.151 119.983 125.227 123.751 128.423C112.207 123.739 100.153 120.07 88.846 114.998C80.8731 111.423 71.2656 107.489 63.5786 102.05C57.1916 97.5316 52.1128 91.9746 49.2591 84.8834C50.1573 86.2424 51.2092 87.5231 52.3987 88.6366C54.9206 91.0012 58.1222 92.6352 61.4559 93.4899C61.6285 93.533 59.5436 92.5678 57.313 91.0093L57.3103 90.9878ZM32.1211 81.5967C30.5351 72.5508 32.4582 65.8803 35.1797 61.8143C37.1109 58.9266 39.4575 57.3655 40.6578 56.7696C39.4251 58.5545 38.4002 60.4824 37.6234 62.4911C36.5148 65.3572 35.9808 68.3446 35.8217 71.4022C35.6544 74.608 35.7246 77.8597 36.1993 81.0413C37.0732 86.8841 39.2067 92.5408 42.8182 97.2485C45.653 100.945 49.1836 103.9 53.1054 106.294C52.5983 106.294 52.0993 106.308 51.6111 106.332C50.5619 105.866 48.3313 104.698 45.6746 102.263C42.7804 99.6104 39.3361 95.5363 36.7603 88.7391C31.9053 75.9238 35.0287 67.4953 35.0287 67.4953C35.0287 67.4953 30.9775 75.7189 35.6949 89.3188C39.1689 99.3327 46.1385 104.474 49.5747 106.491C49.0542 106.548 48.5417 106.613 48.0454 106.693C45.1001 104.712 34.7913 96.7955 32.1265 81.5967H32.1211ZM39.8405 184.453C41.1999 188.422 39.0799 192.661 35.115 193.901C31.1501 195.144 26.8157 192.925 25.4563 188.956C24.0969 184.987 26.2169 180.749 30.1818 179.508C34.1467 178.265 38.4811 180.484 39.8432 184.453H39.8405ZM11.8354 173.779C13.8367 170.851 16.7767 168.74 19.9486 167.17C23.0396 165.642 26.43 164.687 29.9148 164.482C33.2512 164.285 37.7286 164.897 41.3914 166.86C45.0272 168.81 47.8593 172.113 47.8377 172.083C45.6584 168.936 42.4811 166.561 38.9315 165.154C32.1454 162.463 24.577 163.547 18.4139 166.917C17.8825 167.208 17.3566 167.513 16.8414 167.836C17.2811 167.518 17.7234 167.208 18.1765 166.906C20.1455 165.59 22.2439 164.444 24.4961 163.652C26.6269 162.902 28.8817 162.484 31.1555 162.387C33.0543 162.306 35.6814 162.285 38.1197 162.959C41.5289 163.902 44.5525 165.65 44.5067 165.617C42.3327 164.072 39.9808 162.953 37.4076 162.287C33.5452 161.287 29.4643 161.373 25.6721 162.401C30.1521 160.842 35.0503 160.408 39.7569 161.368C43.8485 162.201 47.7298 164.253 50.5322 167.4C53.1728 170.363 54.7722 174.065 55.3386 177.926C56.1883 183.709 54.6023 189.881 50.6239 193.963C50.7399 193.807 50.8532 193.648 50.9611 193.486C52.218 191.606 52.9381 189.431 53.3724 187.214C54.222 182.884 53.7176 178.155 51.5653 174.181C51.5302 174.113 52.191 175.806 52.6414 177.777C52.9112 178.953 53.0406 180.328 53.0757 181.218C53.162 183.334 52.895 185.481 52.3852 187.519C51.8754 189.56 51.1229 191.574 49.8741 193.275C48.7844 194.758 47.3657 196.026 45.7582 196.942C44.9571 197.398 44.1129 197.778 43.2336 198.069C43.0852 198.118 42.9342 198.166 42.7831 198.212C43.0906 198.067 43.3954 197.913 43.6894 197.74C45.4264 196.727 46.8883 195.314 48.0049 193.653C50.605 189.784 50.9961 184.836 49.9604 180.298C49.9361 180.193 49.9874 182.035 50.0117 182.895C50.0629 184.672 49.8984 186.451 49.456 188.163C48.4958 191.873 46.2032 195.349 42.7346 197.145C42.2248 197.409 41.6989 197.627 41.1594 197.813C38.6942 198.657 36.0105 198.711 33.4427 198.08C33.1298 198.005 32.8197 197.918 32.5122 197.829C35.6329 198.274 38.8911 197.676 41.5316 196.069C44.9355 193.998 47.2254 190.264 47.6381 186.3C47.6462 186.23 47.3549 187.586 46.7157 189.067C46.2221 190.207 45.4588 191.412 44.8762 192.146C42.4649 195.187 38.7589 197.034 34.7994 197.088C32.8628 197.115 30.8669 196.732 29.0975 195.885C28.3558 195.53 27.6518 195.06 27.1151 194.435C28.4043 195.341 30.109 195.848 31.6275 196.096C33.2998 196.368 35.0853 196.196 36.6929 195.753C40.2855 194.764 42.8775 191.987 44.2585 188.616C45.7339 185.017 45.742 180.795 44.2181 177.13C42.6699 173.409 39.4116 170.406 35.7947 168.669C28.8764 165.348 20.7092 167.265 15.0046 171.708C13.033 173.242 11.3014 175.108 9.96085 177.222C10.4922 176.033 11.0937 174.879 11.8408 173.79L11.8354 173.779ZM13.122 205.713C9.37825 200.569 7.92715 194.295 8.6527 188.136C9.01952 185.017 9.79092 181.76 11.3634 179.039C9.89072 182.868 9.61291 187.187 10.2279 191.296C11.741 201.394 15.3418 204.616 17.0734 206.905C17.13 206.978 14.6243 203.128 12.8334 198.49C11.8408 195.923 11.3985 193.073 11.1153 190.347C10.8186 187.5 10.9103 184.591 11.5387 181.819C12.1186 179.268 13.2757 176.885 14.8994 174.852C14.9021 174.849 14.9048 174.844 14.9075 174.841C15.482 174.124 16.1482 173.485 16.89 172.94C17.3782 172.582 17.8798 172.245 18.395 171.927C18.6512 171.767 18.9129 171.619 19.1772 171.474C18.6863 171.865 18.2143 172.28 17.772 172.722C14.7403 175.736 12.89 179.781 12.3479 184.03C12.062 186.271 12.1753 188.581 12.5502 190.822C12.9197 193.038 13.6048 195.319 14.6324 197.341C14.6729 197.42 13.4052 192.499 13.1462 189.994C12.7093 185.769 13.4187 181.404 15.3687 177.672C16.3236 175.842 17.6074 174.197 19.1394 172.811C19.8299 172.188 20.5636 171.616 21.3161 171.066C18.9452 173.081 17.3943 176.038 16.1995 178.875C14.0255 184.038 13.5104 188.535 15.01 194.052C16.2777 198.714 18.7483 202.998 22.1064 206.541C22.6836 207.15 23.2662 207.711 23.8083 208.153C27.0342 210.774 30.5864 212.435 32.6524 213.287C38.8533 215.843 49.8984 218.208 64.7087 212.637C69.4828 210.842 73.5178 208.668 76.946 206.212C76.2204 207.595 75.5812 209.024 75.066 210.513C74.8475 211.146 74.656 211.788 74.4807 212.435C71.441 214.759 64.0021 218.485 62.1868 219.057C58.0628 220.351 54.2867 220.888 53.2321 221.047C48.2315 221.805 42.9288 221.174 38.0442 219.72C36.6767 219.313 35.3739 218.717 33.993 218.356C32.4987 217.968 30.964 217.695 29.4266 217.666C23.1151 215.223 17.0923 211.181 13.1193 205.719L13.122 205.713ZM72.6979 218.739C68.6682 222.4 63.9967 225.458 59.1228 227.928C53.7338 230.659 47.8755 232.296 41.8634 233.193C37.9875 233.773 34.0118 233.827 30.1764 234.622C27.3632 235.205 23.5413 236.424 22.662 239.425C22.5622 239.298 22.4732 239.155 22.395 238.993C22.1468 238.467 22.0848 237.85 22.2089 237.265C22.6215 235.332 24.6202 234.272 26.376 233.582C26.5406 233.582 26.7078 233.582 26.8723 233.582C27.0989 233.582 27.3228 233.576 27.5493 233.568C27.2445 233.663 26.9452 233.768 26.6512 233.889C25.9661 234.17 25.3214 234.536 24.7577 235.008C24.194 235.48 23.8029 235.979 23.428 236.604C23.4145 236.626 24.0511 235.965 24.9897 235.334C25.6181 234.914 26.4812 234.512 27.0018 234.315C27.7193 234.045 28.4637 233.868 29.2135 233.706C29.3699 233.673 30.0901 233.485 30.9451 233.358C32.0024 233.202 33.2539 233.102 33.6855 233.029C34.4029 232.908 35.1339 232.867 35.7866 232.544C35.9862 232.444 28.3828 233.512 21.0652 232.004C16.6742 231.098 11.9891 228.038 10.2656 226.682C7.72217 224.681 5.72354 222.047 4.28593 219.181C3.57386 217.76 3.01554 216.283 2.34124 214.848C2.0931 214.32 1.78831 213.832 1.5078 213.327C2.41676 214.406 3.50104 215.325 4.77682 216.061C5.70735 216.598 6.67295 217.17 7.67362 217.553C8.76329 217.97 9.89342 218.262 11.0235 218.534C13.2622 219.076 15.5252 219.507 17.7612 220.055C19.9324 220.586 22.0443 221.198 23.9566 222.414C24.3504 222.665 25.4671 223.395 26.368 224.226C27.6761 225.428 28.8413 226.852 29.2863 227.453C29.4832 227.72 27.9809 224.638 26.4003 222.767C26.3329 222.357 26.403 221.95 26.7105 221.648C27.0773 221.287 27.6464 221.144 28.1373 221.028C28.6417 220.909 29.1515 220.82 29.6693 220.78C30.7806 220.688 31.9593 220.939 33.0543 221.192C33.5965 221.319 35.6302 221.775 36.1184 221.759C36.175 221.759 34.0766 220.826 32.1211 220.354C30.5109 219.966 29.049 220.006 28.4772 220.084C27.3956 220.233 26.0038 220.578 25.637 221.74C25.6154 221.805 25.5992 221.869 25.5885 221.934C25.5318 221.885 25.4752 221.84 25.4158 221.796C25.3403 221.298 25.3727 220.78 25.6127 220.354C25.8663 219.898 26.4543 219.661 26.9856 219.529C28.5176 219.143 30.3221 219.327 31.9269 219.602C33.2431 219.825 34.4623 220.214 35.7111 220.677C37.5587 221.365 39.4926 221.834 41.4184 222.206C46.8478 223.255 52.28 223.204 57.5477 221.707C60.0048 221.009 65.9252 218.747 70.4969 216.088C71.8779 215.285 73.1213 214.436 74.1705 213.654C74.0114 214.352 73.8765 215.053 73.7714 215.76C72.2366 216.787 70.6804 217.801 69.1834 218.618C66.6076 220.025 64.2421 220.89 63.4384 221.33C59.3629 223.185 55.015 224.46 50.6266 225.434C48.3097 225.949 45.0434 226.358 42.0468 226.337C39.0502 226.315 36.3233 225.86 36.3773 225.879C38.9315 226.82 41.6503 227.054 44.3287 226.935C45.7986 226.871 49.7419 226.512 52.984 225.787C55.0986 225.312 56.8491 224.455 57.6421 224.201C56.8626 224.549 56.075 224.886 55.282 225.21C54.7426 225.38 53.8471 225.719 52.458 226.296C51.7244 226.561 50.988 226.814 50.2463 227.057C42.7778 229.138 33.4454 227.421 33.4454 227.421C36.9059 228.583 40.1075 228.987 42.8722 228.995C42.8452 229.001 42.8182 229.006 42.7912 229.012C36.7792 230.206 30.5783 230.508 24.4502 229.548C21.6937 229.117 18.2386 228.321 15.0316 226.798C11.5981 225.169 8.49896 222.821 8.53942 222.859C9.07616 223.349 9.63179 223.821 10.1982 224.277C14.832 228.014 20.5312 230.133 26.3383 231.015C32.6093 231.967 39.15 231.33 45.2457 229.977C51.7999 228.521 58.0979 226.172 63.9778 223.031C65.8038 222.055 67.5894 221.006 69.3291 219.882C56.2719 230.521 42.7939 232.039 41.9551 232.123C56.1181 230.953 67.6244 222.845 73.5367 217.776C73.5313 217.833 73.5286 217.89 73.5259 217.946C73.2454 218.208 72.973 218.477 72.6898 218.736L72.6979 218.739ZM128.031 170.977C122.542 173.019 117.426 175.753 112.865 179.454C107.735 183.615 103.948 188.899 101.269 194.915C100.32 197.048 99.4595 199.256 98.8823 201.521C98.4912 203.055 98.1919 205.878 97.4663 207.293C96.3766 209.421 96.3955 209.582 95.0631 210.669C94.5506 211.087 92.8945 211.675 92.2607 211.623C91.6673 211.572 91.1252 211.262 90.6721 210.855C90.6667 210.771 90.6613 210.685 90.6505 210.596C90.7233 210.626 90.7988 210.653 90.8797 210.677C92.3012 211.09 93.6093 209.957 94.4994 208.997C94.9714 208.49 96.0179 207.088 96.7327 205.25C97.6012 203.02 98.1082 200.345 98.0678 200.399C97.7171 200.868 96.7785 203.16 96.5304 203.777C96.0341 205.018 95.4731 206.336 94.6181 207.366C94.2189 207.846 93.7819 208.288 93.3126 208.701C92.8568 209.102 92.3227 209.566 91.7051 209.685C91.1899 209.785 90.7314 209.582 90.3673 209.243C89.5689 206.449 87.5028 202.925 87.635 203.297C87.9344 204.136 88.5655 206.226 88.8757 208.307C89.0915 209.744 89.0591 211.324 89.0402 211.877C88.9485 214.56 88.1124 217.038 87.1549 219.515C86.165 222.071 85.0457 224.574 84.0504 227.127C83.5487 228.416 83.0632 229.713 82.7342 231.061C82.4321 232.298 82.3404 233.622 82.2433 234.892C82.1084 236.634 82.2837 238.308 82.745 239.915C82.4294 239.303 82.1489 238.68 81.7875 238.087C80.8084 236.472 79.7025 234.941 78.7639 233.296C76.8677 229.98 75.5947 226.267 75.3303 222.444C75.1496 219.852 75.2926 213.225 77.4045 208.323C80.9217 200.154 87.225 193.421 86.9877 193.55C86.2136 193.971 85.6687 194.661 85.0538 195.281C84.6815 195.656 83.7213 196.813 82.8367 197.746C82.1219 198.501 81.4395 199.078 81.2966 199.21C80.6196 199.838 79.9264 200.447 79.1631 200.971C78.6074 201.351 77.6095 201.928 76.7545 202.262C75.4733 202.761 74.3701 202.944 74.3998 202.944C75.2899 202.995 76.0613 202.944 76.9217 202.707C77.7848 202.47 78.5994 202.081 79.3519 201.599C79.6755 201.391 79.9884 201.167 80.2905 200.933C80.1287 201.149 79.9695 201.367 79.8131 201.588C79.6971 201.75 79.5838 201.912 79.4706 202.073C77.569 203.332 75.128 204.586 72.8975 203.702C72.2259 203.435 71.646 202.963 71.2872 202.37C71.1766 202.187 71.093 202.003 71.0364 201.82C74.6614 202.96 78.513 200.03 81.0376 197.662C84.4739 194.438 87.2655 190.579 90.5129 187.171C95.5513 181.884 101.226 177.238 107.681 173.782C113.517 170.657 119.805 168.117 126.262 166.612C127.821 166.248 129.377 165.927 130.939 165.658C130.939 165.658 130.939 165.658 130.941 165.66C122.809 167.459 103.967 173.032 91.6619 187.775C92.3632 186.966 103.152 174.82 122.798 169.136C120.471 170.09 118.186 171.139 115.95 172.277C108.749 175.941 102.052 180.544 96.0799 185.99C90.5237 191.056 85.3882 197.034 82.0329 203.81C78.9257 210.084 77.1375 217.075 77.712 224.102C77.7821 224.962 77.8738 225.817 77.9979 226.671C78.006 226.733 77.7767 222.136 78.4969 217.69C79.1712 213.535 80.7436 209.623 82.2055 206.635C85.453 199.995 90.022 194.125 95.3598 189.037C95.3841 189.015 95.4083 188.991 95.4326 188.97C93.5419 191.682 91.7455 195.085 90.5345 199.248C90.5345 199.248 95.2222 188.967 102.453 183.04C103.206 182.474 103.969 181.922 104.738 181.382C106.275 180.409 107.236 179.756 107.775 179.341C108.646 178.78 109.523 178.233 110.41 177.702C108.382 179.247 106.424 180.886 104.536 182.596C102.381 184.548 100.282 186.608 98.5047 188.916C96.5439 191.461 94.9094 194.278 94.1002 197.406C94.084 197.474 95.5 194.5 97.5391 191.553C99.5782 188.606 102.238 185.683 104.347 183.755C108.344 180.107 112.617 176.699 117.285 173.943C122.734 171.239 128.452 169.055 134.343 167.537C135.127 167.855 135.931 168.114 136.743 168.308C136.813 168.324 136.886 168.338 136.956 168.351C133.924 169.012 130.931 169.896 128.023 170.977H128.031ZM163.99 168.149C160.913 165.838 157.414 164.115 153.676 163.185C151.637 162.678 149.568 162.473 147.47 162.447C144.975 162.411 139.769 162.401 139.926 162.436C144.711 163.528 149.665 162.999 154.367 164.56C156.756 165.353 159.014 166.486 161.099 167.882C159.356 166.898 157.485 166.148 155.516 165.717C150.34 164.579 145.269 166.601 140.082 166.235C135.478 165.909 130.901 163.749 129.088 159.27C128.239 157.167 128.142 154.789 129.242 152.753C129.283 152.678 129.326 152.6 129.372 152.524C130.03 151.424 131.068 150.602 132.26 150.13C132.824 149.906 133.412 149.696 134.016 149.507C133.266 149.944 132.587 150.483 132.026 151.163C128.986 154.835 130.367 160.165 134.65 162.099C134.882 162.204 133.299 160.465 132.784 159.645C131.254 157.202 131.373 153.819 133.55 151.643C135.095 150.095 137.474 149.335 139.58 148.957C140.282 148.83 140.997 148.76 141.717 148.731C144.765 148.609 147.785 149.313 150.534 150.634C154.256 152.422 156.883 154.609 156.818 154.536C153.784 151.238 149.87 148.766 145.528 147.604C141.234 146.455 136.705 146.574 132.463 147.879C128.047 149.235 124.33 152.098 120.347 154.328C116.684 156.38 111.94 158.424 107.702 156.987C106.008 156.412 104.509 155.229 104.08 153.417C103.878 152.565 103.94 151.777 104.193 151.063C104.6 150.828 105 150.58 105.399 150.327C105.24 151.392 105.458 152.503 106.016 153.436C107.724 156.294 111.254 156.474 114.035 155.218C114.167 155.159 111.799 155.493 109.806 154.865C108.608 154.487 107.624 153.53 107.179 152.589C106.637 151.449 106.669 150.278 107.343 149.2C107.459 149.014 107.597 148.836 107.74 148.666C110.211 146.719 113.053 144.015 116.153 142.122C119.848 139.868 123.942 138.79 123.761 138.795C119.859 138.943 116.371 140.539 113.11 142.586C110.1 144.476 107.263 146.657 104.123 148.34C100.994 150.017 97.7576 151.012 94.1784 150.799C90.5588 150.583 86.9283 149.788 83.3222 150.621C81.987 150.928 80.7787 151.465 79.7052 152.187C80.0936 151.675 80.509 151.184 80.9648 150.734C82.9715 148.755 85.5555 147.914 88.3174 147.69C93.4043 147.277 99.4946 148.607 103.748 145.029C103.918 144.886 102.132 145.643 101.402 145.929C96.7489 147.741 91.3248 145.652 86.4347 146.46C83.8454 146.889 81.5393 148.003 79.716 149.898C78.834 150.812 78.0842 151.837 77.4045 152.91C77.2346 153.177 77.035 153.468 76.8327 153.773C76.8785 152.78 76.9433 151.791 77.1105 150.812C77.4207 149.006 78.0195 147.312 78.8232 145.67C79.5649 144.158 80.4685 142.548 81.6256 141.311C82.2433 140.65 82.8825 140.038 83.5946 139.483C84.1502 139.051 84.8029 138.666 85.3532 138.213C86.5049 137.609 87.6296 136.951 88.7813 136.347C90.5372 135.425 92.3093 134.527 94.111 133.702C95.527 133.052 97.5445 131.984 99.5486 131.332C102.826 130.264 105.981 129.738 105.795 129.746C101.704 129.967 97.7468 131.014 93.9276 132.467C87.5325 134.899 81.2858 139.113 74.1463 138.099C71.3034 137.695 68.5226 136.406 66.7451 134.093C65.1457 132.011 64.4147 129.199 65.2725 126.67C65.3372 126.686 65.4019 126.702 65.4667 126.718C66.0223 126.848 66.5806 126.961 67.1416 127.061C66.6345 128.013 66.648 129.318 66.8557 130.31C67.174 131.82 67.9831 133.235 69.1079 134.29C71.7215 136.735 75.5866 136.821 78.9608 136.657C79.0444 136.651 76.7032 136.465 74.3728 135.71C73.0431 135.279 71.53 134.573 70.6884 133.877C69.0324 132.505 67.2846 129.35 68.9514 127.339C69.4046 127.395 69.8604 127.444 70.3162 127.484C70.1032 127.824 69.971 128.231 69.9359 128.665C69.8334 129.903 70.4916 131.173 71.3088 132.057C73.0701 133.961 75.7322 134.017 78.1327 134.214C78.2325 134.222 76.2123 133.88 74.4591 133.052C73.6635 132.675 72.9029 132.062 72.4578 131.574C71.8644 130.925 71.0499 129.204 71.6433 128.309C71.8294 128.029 72.2555 127.862 72.4902 127.611C78.006 127.762 83.546 126.654 88.6006 124.413C89.051 124.214 79.3276 126.236 74.6965 126.077C70.7235 125.939 66.7532 125.082 63.058 123.618C59.2091 122.092 55.7945 119.816 52.2423 117.729C48.7116 115.656 45.0218 113.782 40.8762 113.431C40.3152 113.383 39.7434 113.364 39.1662 113.375C40.3287 112.892 41.5236 112.482 42.7292 112.118C43.7353 111.816 45.3266 111.512 46.7049 111.28C49.0056 110.894 51.0177 110.665 50.953 110.66C48.183 110.441 45.3131 110.495 42.5836 111.048C41.2188 111.326 39.8837 111.743 38.589 112.253C38.5593 112.264 38.527 112.277 38.4973 112.288C48.8384 105.755 62.5402 107.513 62.5402 107.513C60.0534 106.89 57.7203 106.529 55.5328 106.378C55.0285 106.065 54.5295 105.747 54.0359 105.418C49.4183 102.331 45.4102 98.5238 42.6429 93.6624C39.9727 88.971 38.206 83.6782 37.7556 78.3181C37.297 72.8582 37.9336 67.2661 40.1696 62.1945C42.1709 57.654 45.5397 53.6905 49.7635 51.0671C53.7122 48.6135 58.4647 47.4649 63.0634 48.3627C68.2259 49.3711 73.2589 53.0003 75.5245 57.7807C77.9251 62.847 77.3586 68.954 73.5745 73.1682C69.9117 77.2504 63.2307 78.6362 58.8774 74.7887C56.8491 72.9957 55.5571 70.0514 55.6138 67.3686C55.6623 65.0876 56.1559 63.7044 58.2894 62.1136C59.5166 61.1996 61.1781 60.9839 62.613 61.5042C63.3682 61.7793 63.9859 62.2511 64.4822 62.8335C64.5658 62.9656 65.5772 64.5968 65.1322 67.3201C64.6467 68.3662 63.8699 69.1697 63.1282 69.2344C66.9231 68.9001 68.2852 64.6346 67.3574 61.4692C66.3055 57.8832 61.8012 55.6938 58.257 56.074C48.566 57.1067 44.8384 64.3191 44.3098 70.9735C43.6651 79.073 46.4648 87.7792 51.4574 94.1154C60.8544 106.044 72.3391 111.619 83.9102 116.128C82.3727 115.793 80.8488 115.392 79.3438 114.909C74.5428 113.372 64.9919 109.522 65.1268 109.592C69.6473 111.924 74.095 114.294 78.95 115.882C81.2885 116.648 83.6701 117.238 86.0949 117.664C87.2682 117.872 88.4442 118.101 89.5932 118.419C89.604 118.422 89.6174 118.428 89.6282 118.43C88.1232 118.295 84.7679 118.223 81.2399 117.559C77.213 116.802 72.9838 115.4 71.4248 114.833C65.9468 112.852 60.2314 110.598 54.2948 111.142C54.2085 111.15 56.6819 111.404 59.0689 111.948C61.4559 112.493 63.7512 113.332 64.5739 113.631C67.6891 114.766 74.621 117.851 80.5252 119.35C85.2372 120.544 89.2344 120.296 90.5857 120.404C91.5001 120.477 92.4064 120.585 93.3099 120.717C93.2883 120.717 93.2668 120.722 93.2452 120.722C90.4347 121.032 87.6781 121.517 84.8407 121.552C82.5508 121.579 79.5056 121.375 76.536 120.593C72.7275 119.59 69.2023 117.953 69.2427 117.983C71.2306 119.414 73.4072 120.622 75.7214 121.434C78.1921 122.299 80.8596 122.634 83.4624 122.717C86.254 122.806 89.0294 122.558 91.7914 122.173C92.8136 122.03 93.844 121.914 94.8608 121.898C93.6012 122.245 92.1852 122.747 90.6181 123.461C90.6181 123.461 93.7954 122.531 97.5283 122.599C98.0651 122.607 98.6072 122.644 99.1548 122.706C99.268 122.758 99.3813 122.812 99.4946 122.871C99.678 122.968 99.8426 122.925 99.9585 122.814C101.998 123.13 104.12 123.761 106.41 124.578C106.416 124.578 106.418 124.58 106.424 124.583C106.818 124.723 107.211 124.866 107.605 125.006C105.41 124.47 103.209 124.02 100.927 123.944C95.2249 123.753 89.8089 125.279 84.8838 128.121C84.7706 128.185 89.6822 126.627 93.6929 125.831C96.7974 125.217 99.2519 125.039 101.685 125.244C104.074 125.443 105.919 126.19 108.231 126.775C107.125 126.71 106.016 126.67 104.905 126.67C100.471 126.665 96.1015 127.352 92.1016 129.323C92.0314 129.358 94.9552 128.498 97.9356 128.102C100.587 127.748 103.187 127.843 105.248 127.924C107.929 128.029 110.656 128.188 113.353 128.487C111.718 128.595 110.008 128.843 108.25 129.285C108.015 129.345 116.878 128.425 124.266 131.167C124.716 131.348 125.167 131.531 125.614 131.717C126.351 132.044 126.971 132.302 127.492 132.505C127.562 132.534 127.632 132.564 127.699 132.594C127.993 132.72 128.287 132.847 128.579 132.976C125.865 132.491 123.101 132.311 120.347 132.251C116.786 132.176 113.215 132.343 109.685 132.836C102.766 133.804 96.0341 136.323 90.316 140.353C90.1434 140.475 97.5203 137.013 101.326 135.956C107.859 134.144 114.75 133.559 121.504 133.917C123.157 134.006 127.003 134.524 129.96 135.158C132.543 135.71 134.329 136.366 134.957 136.665C135.281 136.819 135.599 136.989 135.912 137.164C133.873 137.161 131.238 137.447 127.939 138.334C127.939 138.334 136.115 136.695 143.61 140.941C144.368 141.437 145.118 141.952 145.862 142.478C142.885 141.402 139.732 140.806 136.605 140.798C130.31 140.785 124.403 143.214 119.308 146.773C119.225 146.833 125.698 143.983 129.053 143.174C134.38 141.888 139.934 142.149 145.096 143.993C145.949 144.298 148.878 145.253 151.044 146.646C153.722 148.367 155.675 150.602 156.325 151.241C159.289 154.158 162.046 157.289 164.57 160.589C165.29 161.53 169.234 167.782 172.516 173.377C172.505 173.385 172.494 173.396 172.484 173.404C171.17 171.004 169.614 168.74 167.785 166.672C162.822 161.053 156.044 157.213 148.535 156.472C148.411 156.458 150.992 157.227 153.757 158.327C156.036 159.235 158.385 160.378 159.931 161.433C165.226 165.04 169.088 170.212 171.747 175.963C171.319 175.402 169.606 173.199 168.09 171.854C166.838 170.516 165.468 169.276 163.974 168.154L163.99 168.149ZM190.202 213.136C187.173 213.195 184.09 213.697 181.282 214.87C178.531 216.021 175.966 217.935 172.918 218.194C170.598 218.394 167.451 217.725 166.151 215.582C165.002 213.686 165.406 210.86 166.731 209.148C167.691 207.908 169.193 206.665 171.224 206.223C175.202 205.355 180.2 206.137 180.039 206.075C176.12 204.516 171.081 204.166 167.329 206.39C166.404 206.937 165.63 207.703 165.031 208.596C164.198 208.898 163.054 209.448 162.245 210.364C162.404 209.933 162.596 209.512 162.822 209.111C163.397 208.099 164.201 207.043 165.112 206.325C166.971 204.864 171.319 203.524 171.173 203.548C168.621 203.95 166.008 204.673 164.082 206.223C163.224 206.916 162.482 207.738 161.938 208.698C161.695 209.127 161.382 209.723 161.15 210.348C160.487 211.623 159.699 213.363 159.427 214.881C159.427 214.883 159.427 214.886 159.427 214.889C159.181 215.8 159.052 216.741 158.925 217.685C158.938 217.245 158.952 216.803 158.971 216.366C159.07 214.104 159.262 210.483 160.427 207.87C161.552 205.344 163.653 203.783 163.586 203.821C159.669 206.034 158.38 210.491 158.04 214.721C157.859 216.976 158.118 219.461 157.293 221.605C157.023 222.303 156.624 222.926 156.176 223.517C156.473 222.576 156.613 221.594 156.656 220.599C156.727 218.968 156.241 216.52 156.201 214.495C156.166 212.751 156.578 211.281 156.557 211.343C155.65 214.107 155.882 216.854 155.739 219.712C155.683 220.864 155.532 222.031 155.165 223.128C155.165 223.101 155.165 223.074 155.165 223.047C155.205 220.669 154.76 218.45 154.18 216.159C153.522 213.559 153.196 211.076 153.754 208.42C154.272 205.953 155.348 203.602 156.727 201.499C160.71 195.419 168.246 193.621 175.132 194.314C176.775 194.478 178.377 194.785 179.941 195.222C182.728 195.999 185.287 197.438 187.421 199.391C187.677 199.625 187.931 199.862 188.181 200.102C187.817 199.873 187.456 199.652 187.111 199.436C184.807 197.999 182.358 196.781 179.777 195.921C177.269 195.085 174.706 194.837 172.217 194.92C169.832 195.001 167.521 195.368 165.252 196.595C165.193 196.627 168.5 195.74 171.823 195.675C174.879 195.616 177.867 196.338 180.082 197.177C181.517 197.719 182.911 198.369 184.265 199.097C183.909 198.973 183.55 198.851 183.189 198.738C179.685 197.646 175.861 197.18 172.2 197.379C168.815 197.562 165.576 198.773 162.798 200.717C162.221 201.122 161.004 201.89 159.95 203.133C158.795 204.492 157.832 206.42 157.547 207.196C157.49 207.35 159.162 204.616 162.07 202.556C164.98 200.496 169.126 199.107 171.89 198.954C177.63 198.633 183.224 200.019 188.27 202.631C187.947 202.505 187.623 202.381 187.302 202.262C182.245 200.391 176.583 199.361 171.256 200.607C171.186 200.623 174.701 200.256 177.91 200.607C181.331 200.979 184.54 202.098 187.089 203.095C190.547 204.449 193.8 206.258 196.748 208.488C197.166 208.83 197.581 209.175 197.997 209.52C196.92 208.614 195.604 207.9 194.425 207.25C192.494 206.182 190.463 205.306 188.373 204.594C184.459 203.26 180.521 202.739 176.411 202.64C176.357 202.64 178.596 202.831 181.239 203.411C183.65 203.939 186.39 204.826 188.16 205.465C190.016 206.137 191.833 206.932 193.573 207.865C193.713 207.94 193.848 208.021 193.986 208.099C192.163 207.571 190.121 206.892 188.297 206.684C187.076 206.544 186.099 206.261 184.88 206.155C184.729 206.142 188.629 207.118 191.828 208.18C192.303 208.337 193.724 208.83 194.692 209.256C195.658 209.682 196.171 210.043 196.529 210.227C194.701 209.472 192.81 208.86 190.881 208.426C184.991 207.099 178.917 207.487 173.385 209.944C173.266 209.995 176.883 208.911 180.84 208.649C184.346 208.418 188.052 208.962 190.682 209.601C192.818 210.119 194.897 210.866 196.893 211.791C195.542 211.351 194.167 210.982 192.775 210.691C188.346 209.76 183.979 209.787 179.534 210.542C179.483 210.55 182.099 210.389 185.139 210.58C187.688 210.739 190.52 211.208 192.427 211.618C194.506 212.063 196.551 212.68 198.531 213.46C199.542 213.856 200.535 214.298 201.508 214.778C201.805 214.924 202.099 215.088 202.39 215.253C198.466 213.915 194.401 213.061 190.196 213.141L190.202 213.136ZM305.451 207.816C303.703 218.75 295.994 228.936 286.166 233.886C274.732 239.646 261.157 239.098 248.987 236.235C239.275 233.951 229.905 229.955 221.47 224.56C215.499 220.583 210.466 216.113 206.299 211.394C205.43 209.995 204.365 208.302 203.07 206.271C188.473 183.386 197.044 152.206 196.861 152.81C191.453 170.773 192.777 183.067 195.453 192.396C196.351 195.532 197.409 198.299 198.447 200.642C194.892 194.645 192.529 188.554 191.229 182.809C187.723 167.305 191.542 154.401 191.542 154.401C186.328 169.166 189.069 184.715 194.083 195.745C195.102 197.986 196.241 200.121 197.452 202.138C194.746 198.455 192.359 194.551 190.396 190.458C189.471 188.527 188.637 186.551 187.89 184.54C180.648 159.772 191.221 129.876 191.221 129.876C185.004 145.155 183.467 158.017 183.774 167.807C183.219 163.636 182.984 159.424 183.054 155.253C183.297 141.011 187.755 126.953 195.151 114.831C198.665 109.072 202.852 103.66 207.874 99.1331C212.224 95.2128 217.039 91.8937 221.883 88.6204C229.915 83.1929 239.488 77.7438 243.418 68.3716C244.326 66.2065 244.858 63.9201 245.079 61.5851C245.098 61.3829 244.585 64.6427 242.908 68.2044C241.726 70.7146 239.625 73.4271 238.212 74.9558C234.603 78.86 230.126 81.8717 225.694 84.754C220.734 87.9814 215.666 91.0147 210.959 94.6196C205.746 98.6128 201.239 103.253 197.36 108.554C188.767 120.296 183.108 134.292 181.571 148.787C180.238 161.355 181.921 174.663 186.517 186.451C190.97 197.873 198.452 207.695 207.318 216.064C207.404 216.145 207.493 216.226 207.58 216.307C206.992 215.838 205.166 214.694 203.337 213.034C201.349 211.23 199.345 208.887 198.574 208.148C198.568 208.143 198.566 208.143 198.563 208.137C197.859 207.409 197.104 206.722 196.324 206.069H196.33L188.993 199.393H188.991C186.59 196.907 183.753 194.788 180.912 192.976C176.311 190.043 170.962 187.57 165.428 187.36C159.961 187.152 155.235 189.649 152.597 194.497C150.965 197.492 150.181 200.857 148.624 203.888C147.4 206.271 145.547 208.571 142.725 208.887C138.761 209.332 134.976 206.781 133.272 203.297C133.256 203.257 133.239 203.217 133.223 203.176C131.732 199.083 132.258 194.804 134.529 191.116C135.57 189.425 137.558 187.168 139.481 185.359C142.237 182.765 144.907 180.857 144.827 180.905C138.488 184.594 131.214 190.029 130.744 198.037C130.521 201.871 131.888 205.498 134.27 208.453C136.441 211.146 139.289 213.554 140.317 216.976C141.007 219.278 140.921 222.023 139.861 224.201C139.57 224.803 139.162 225.345 138.747 225.862C138.523 226.14 138.294 226.42 138.038 226.669C137.919 226.784 137.8 226.906 137.66 226.997C137.595 227.038 137.552 227.057 137.523 227.065C137.412 226.612 137.277 226.167 137.121 225.728C138.947 224.582 139.616 221.772 139.491 219.772C139.343 217.431 138.121 215.253 136.724 213.433C136.638 213.322 137.531 214.73 138.1 216.304C138.483 217.369 138.601 218.491 138.612 219.343C138.626 220.416 138.442 221.451 138.054 222.452C137.722 223.304 137.191 223.932 136.678 224.63C136.492 224.228 136.29 223.835 136.063 223.455C137.668 222.031 137.93 219.588 137.353 217.528C136.498 214.481 134.167 212.478 131.893 210.453C131.856 210.421 135.171 214.042 135.964 216.361C136.546 218.062 136.843 221.044 135.392 222.438C133.266 219.502 130.135 217.45 127.929 214.576C126.37 212.546 125.239 210.259 124.854 207.908C124.678 206.846 124.465 205.142 124.508 203.656C124.56 201.847 124.889 200.35 124.829 200.523C123.535 204.287 123.203 208.477 124.608 212.265C126.054 216.164 129.299 218.658 132.115 221.521C134.96 224.417 136.543 228.157 135.877 232.255C135.791 232.792 135.664 233.312 135.508 233.824C135.697 232.412 135.713 230.991 135.381 229.586C135.003 227.992 134.221 225.994 132.986 224.458C131.521 222.632 129.609 221.403 129.657 221.457C130.647 222.605 131.92 223.767 132.759 225.196C133.598 226.628 134.008 228.327 134.27 229.847C134.637 231.98 134.111 234.01 133.641 236.049C133.296 232.379 131.821 228.826 129.779 225.736C128.198 223.349 126.38 221.141 124.829 218.731C124.082 217.571 122.834 215.557 122.2 213.926C121.563 212.295 121.542 211.046 121.539 211.133C121.423 213.546 122.372 215.722 123.486 217.811C124.762 220.198 126.186 222.43 127.775 224.617C130.766 228.734 132.913 233.601 132.285 238.664C132.271 238.599 132.258 238.532 132.244 238.467C131.421 234.916 129.463 231.684 127.438 228.699C125.426 225.736 123.117 222.88 121.552 219.642C119.527 215.449 118.939 210.542 119.217 205.934C119.807 196.196 124.131 186.74 131.991 180.776C138.647 175.723 147.092 173.776 155.346 174.585C160.079 175.049 164.716 176.313 169.061 178.23C172.109 179.576 174.919 181.28 177.649 183.129C178.895 184.011 180.238 185.06 181.331 186.157C181.344 186.171 181.352 186.179 181.366 186.192C179.197 184.405 176.791 182.889 174.396 181.638C171.192 179.964 167.807 178.53 164.322 177.556C160.667 176.534 156.824 176.356 153.045 176.348C153.002 176.348 160.276 177.16 163.791 178.201C167.189 179.209 170.496 180.706 173.622 182.369C174.531 182.852 175.41 183.364 176.262 183.903C176.368 184.041 176.891 184.405 178.067 185.119C179.739 186.319 181.285 187.648 182.687 189.121C183.305 189.881 183.769 190.582 184.106 191.154C182.453 189.684 179.974 187.573 177.738 186.039C177.652 185.979 177.573 185.928 177.498 185.877C173.474 183.086 168.802 181.156 164.058 180.126C162.156 179.713 159.038 179.406 156.57 179.409C154.426 179.411 152.764 179.7 152.932 179.7C160.94 179.708 169.733 182.631 176.395 187.058C176.57 187.174 176.775 187.314 177.004 187.476C175.696 186.807 174.342 186.222 172.956 185.734C169.598 184.553 166.078 183.798 162.52 183.62C155.99 183.291 149.566 185.278 145.66 190.752C145.579 190.865 147.777 188.778 148.937 187.98C152.495 185.535 157.088 184.639 161.409 184.723C155.386 185.489 149.444 189.247 148.746 198.692C148.746 198.692 150.118 187.872 160.074 186.352C166.952 185.3 172.4 186.751 175.113 187.751C176.049 188.128 176.977 188.53 177.883 188.97C178.059 189.053 180.004 189.956 181.908 191.234C183.812 192.512 185.67 194.168 186.676 195.052C188.219 196.409 189.606 197.929 190.366 198.8C190.752 199.242 189.274 196.859 188.324 195.319C188.324 195.311 187.82 194.451 187.213 193.418C186.717 192.572 186.153 191.612 185.738 190.905C171.583 162.293 181.109 131.019 181.109 131.019C175.664 147.558 175.944 161.589 177.862 171.97C177.115 169.443 176.476 167.106 176.357 166.467C175.707 162.959 175.084 159.443 174.596 155.908C173.606 148.704 173.43 141.524 174.42 134.306C174.989 130.164 176.61 121.442 176.519 121.739C174.307 128.97 172.54 136.592 172.395 144.185C172.341 146.957 172.486 149.723 172.756 152.478C172.559 151.996 172.357 151.516 172.155 151.036C171.904 149.793 171.658 148.547 171.424 147.302C170.801 144.01 170.129 140.704 169.784 137.369C169.131 131.092 169.217 124.254 171.37 118.252C172.427 115.303 174.156 111.913 177.269 110.724C178.507 110.25 179.888 110.234 181.053 110.908C181.557 111.199 181.983 111.549 182.35 111.946C184.589 114.957 183.521 121.849 183.521 121.849C183.032 123.683 182.469 125.098 182.528 125.009C184.627 121.739 185.274 118.077 185.662 114.273C186.021 110.773 186.385 107.265 187.216 103.841C187.968 100.745 189.498 96.4423 191.583 92.8778C193.975 88.7903 196.893 85.6357 196.807 85.7112C191.658 90.0953 188.26 95.9327 186.372 102.401C185.352 105.898 184.918 109.417 184.605 113.035C184.586 113.251 184.57 113.48 184.554 113.712C184.535 112.24 184.519 110.665 184.529 109.578C184.562 106.928 184.91 104.27 185.492 101.686C186.66 96.4908 188.818 91.5216 192.052 87.2723C197.703 79.8468 206.46 75.6137 212.899 68.9621C215.151 66.6325 217.468 63.7583 217.991 60.4985C218.884 64.7236 216.828 68.7545 213.856 71.9172C210.425 75.5652 201.713 81.0413 201.783 81.0035C206.673 78.3855 211.639 75.9265 215.464 71.7931C217.425 69.6739 219.032 66.832 219.48 63.8985C219.639 64.4351 219.774 64.9797 219.876 65.5378C220.313 67.9105 220.192 70.383 219.48 72.6937C218.789 74.9316 217.624 77.0643 216.135 78.8681C214.541 80.7986 212.567 82.1494 210.544 83.5758C210.304 83.7456 213.133 82.8397 214.204 82.1144C214.967 81.5994 215.69 81.0251 216.37 80.4023C217.341 79.863 221.424 77.5308 226.018 73.9717C228.912 71.7311 232.025 69.3126 234.943 65.8749C243.172 56.1818 241.513 47.8639 240.95 47.055C240.72 46.7261 242.854 55.9473 233.726 65.0309C226.814 71.9118 221.395 75.7108 219.172 77.1506C219.803 76.2123 220.338 75.2255 220.753 74.1982C220.812 74.1874 220.872 74.1631 220.931 74.1146C223.857 71.8147 226.805 69.4528 229.594 66.9857C232.337 64.5591 234.892 61.8925 236.656 58.6543C239.908 52.6794 240.291 45.0814 237.341 38.915C237.036 38.276 236.688 37.6613 236.313 37.0654C237.244 37.9821 238.198 39.0741 238.981 40.2389C240.167 42.005 240.958 43.9301 240.958 43.9301C240.793 41.6463 239.846 39.4516 239.064 37.9875C239.21 38.0711 241.37 40.0852 242.673 43.593C243.485 45.7743 243.701 49.2983 243.698 50.9673C243.698 53.3346 243.658 55.7154 242.495 58.6166C241.082 62.1379 238.498 65.9908 238.571 65.9288C243.072 62.1271 244.901 56.4434 244.912 50.6734C244.912 49.1285 244.801 47.5565 244.523 46.017C245.362 48.9694 245.945 52.8304 245.683 57.6729C245.683 57.6729 246.155 55.9338 246.263 53.4074C246.376 50.7435 246.242 47.233 245.478 44.0945C245.594 44.321 245.707 44.5475 245.81 44.7767C246.436 46.1734 246.959 47.6266 247.369 49.1015C248.235 52.2103 248.494 55.4593 248.294 58.6705C248.113 61.5797 247.525 65.0417 245.891 68.3177C243.806 72.5023 240.599 76.2096 240.65 76.1638C245.6 71.8174 249.036 65.3006 249.821 58.7487C250.217 55.4404 249.877 52.062 249.028 48.8507C248.766 47.8585 248.448 46.8852 248.07 45.9361C250.268 49.4466 252.119 54.8607 251.061 62.8685C251.061 62.8685 254.007 54.9362 251.026 47.5511C251.164 47.7102 251.299 47.8693 251.436 48.0311C251.547 48.2387 251.652 48.4463 251.746 48.6566C252.418 50.153 252.955 51.7142 253.346 53.3076C254.166 56.6618 254.317 60.1939 253.777 63.6046C253.314 66.5435 252.248 69.7009 250.104 72.8986C247.283 77.1048 243.296 81.017 243.366 80.9685C249.246 76.9214 253.481 70.8144 254.886 63.7934C255.501 60.7223 255.55 57.5327 255.067 54.4347C255.423 55.3352 255.757 56.3086 256.03 57.3278C256.987 60.903 257.079 65.1792 256.504 67.0936C256.491 67.1421 257.57 65.0309 257.75 61.9329C257.896 59.4308 257.254 56.101 256.515 54.1947C256.415 53.9386 256.313 53.6851 256.202 53.4317C257.192 55.2031 257.982 57.0905 258.522 59.1073C260.763 67.5196 257.861 76.6248 252.21 83.0338C246.395 89.6288 238.463 93.5384 230.204 96.1592C229.387 96.1322 228.575 96.1376 227.768 96.1861C235.134 93.6651 252.469 86.2181 256.059 71.0301C256.059 71.0301 253.074 80.4562 243.347 86.5255C233.629 92.5893 225.697 95.4528 221.303 97.998C218.865 99.2787 216.348 100.683 214.369 102.538C214.369 102.538 219.542 100.05 222.007 98.9498C222.919 98.5427 225.225 97.6799 228.459 97.696C232.866 97.7203 238.546 98.7395 240.558 98.8581C243.528 99.0334 246.514 99.117 249.473 98.7745C249.535 98.7664 249.602 98.7611 249.664 98.753C247.212 101.069 241.484 105.03 241.659 104.957C244.505 103.763 247.277 102.261 249.664 100.279C249.43 100.57 249.195 100.861 248.949 101.145C247.617 102.703 246.198 104.162 244.604 105.45C241.67 107.823 238.25 109.392 234.587 110.261C230.714 111.18 226.714 111.215 222.846 112.148C219.005 113.073 215.348 114.691 212.162 117.042C210.185 118.5 208.4 120.223 206.854 122.129C205.314 124.028 203.755 126.314 202.838 128.649C201.972 129.064 201.166 129.601 200.413 130.229C202.423 123.062 207.539 117.484 213.789 113.456C215.798 112.161 218.552 110.859 221.594 110.223C224.64 109.589 227.973 109.622 230.582 109.147C234.147 108.497 236.464 107.268 236.394 107.27C234.476 107.335 232.194 108.214 230.279 108.33C225.697 108.613 221.53 108.414 217.241 110.279C211.982 112.569 206.935 116.395 203.464 121.035V121.032C203.44 121.064 203.34 121.202 203.175 121.434C203.065 121.588 202.949 121.741 202.841 121.895C202.784 121.978 202.725 122.073 202.66 122.181C201.481 123.931 199.183 127.589 196.947 132.548C201.295 118.293 208.289 111.884 208.289 111.884C196.141 121.25 193.117 141.942 192.813 144.266C192.813 144.282 192.81 144.295 192.807 144.309C192.794 144.422 192.786 144.481 192.786 144.481C192.564 146.374 192.645 148.17 192.637 148.609C192.637 148.723 192.912 146.061 193.905 143.12C194.698 140.769 196.106 138.261 197.053 136.657C199.127 133.152 202.444 129.463 206.838 129.409C211.043 129.358 214.789 132.373 215.679 136.43C216.637 140.796 215.418 145.544 214.139 149.715C212.799 154.083 210.997 158.286 209.395 162.562C207.404 167.879 206.134 173.547 205.352 179.161C204.413 185.89 204.4 192.774 206.034 199.399C207.456 205.166 210.191 210.51 214.061 215.013C214.29 215.28 214.522 215.544 214.757 215.805C208.251 210.097 202.522 202.645 200.535 193.302C198.93 185.766 198.46 178.489 198.879 172.053C199.847 157.21 204.637 146.684 204.637 146.684C204.637 146.684 199.162 156.76 197.765 171.519C197.16 177.904 196.885 185.626 198.865 193.022C203.046 208.617 213.438 217.693 222.676 223.514C225.295 225.164 227.822 226.553 230.099 227.696C232.37 228.898 234.716 229.953 237.12 230.845C238.927 231.557 240 231.899 240 231.899L240.011 231.835C242.001 232.46 244.019 232.978 246.053 233.38C247.93 233.752 249.821 233.973 251.722 234.178C252.259 234.234 244.804 232.126 241.384 230.966C232.014 227.785 223.321 222.19 216.729 214.918C214.636 212.608 212.845 210.087 211.391 207.382C215.472 213.009 221.23 217.873 225.772 220.82C231.148 224.309 236.855 226.399 236.966 226.464C226.876 221.578 218.765 214.314 213.837 207.611C210.781 203.457 208.82 199.533 207.604 196.584C207.132 194.065 206.897 191.504 206.851 188.937C207.634 192.262 209.036 196.098 211.402 200.394C220.532 216.967 239.364 225.887 239.364 225.887H239.361C244.167 228.963 249.575 231.069 255.158 232.288C261.61 233.695 268.461 234.081 274.959 232.813C284.04 231.045 292.62 226.145 297.831 218.364C302.918 210.769 304.828 200.501 301.75 191.768C300.153 187.236 297.364 183.108 293.761 179.953C298.745 183.887 308.31 194.3 303.136 209.615C296.439 229.443 277.044 233.981 277.044 233.981C277.044 233.981 282.519 233.404 288.669 229.918C293.453 227.208 298.672 222.568 301.858 216.164C304.067 211.723 305.221 208.021 305.763 205.015C305.712 205.951 305.615 206.889 305.467 207.833L305.451 207.816ZM311.101 198.164C310.848 190.436 307.441 183.035 301.623 177.904C298.319 174.989 294.365 173.029 290.133 171.865C290.074 171.848 295.368 173.946 299.708 177.438C302.999 180.085 305.335 183.747 306.729 186.678C310.214 194.003 310.376 202.138 307.484 209.69C307.223 210.37 306.942 211.044 306.645 211.71C309.016 202.933 307.557 193.399 302.635 185.65C298.379 178.948 290.7 174.399 282.799 173.757C281.03 173.614 277.116 173.296 273.084 174.248C269.883 175.003 266.384 176.925 265.432 177.742C261.494 181.123 259.253 186.308 259.355 191.485C259.423 194.939 260.806 198.037 263.336 200.353C265.985 202.78 269.68 204.147 273.311 203.465C274.238 203.289 275.067 203.219 275.881 202.844C276.294 202.71 276.69 202.54 277.076 202.348C277.076 202.348 277.071 202.354 277.068 202.356C272.129 206.541 258.587 204.667 257.049 193.693C255.757 184.478 259.976 179.525 261.567 177.893C257.524 180.646 255.396 185.998 255.506 192.982C255.571 197.134 259.846 207.253 272.019 205.942C279.185 205.171 281.216 200.092 281.65 196.937C281.694 196.791 281.737 196.646 281.774 196.497C281.75 196.835 281.715 197.172 281.661 197.506C281.599 197.891 281.507 198.266 281.408 198.641C281.402 198.66 281.397 198.681 281.389 198.706C281.267 199.113 281.146 199.512 280.99 199.906C280.671 200.701 280.267 201.464 279.762 202.157C278.044 204.513 275.458 206.015 272.688 206.803C266.951 208.436 260.626 206.382 256.569 202.108C256.256 201.779 255.957 201.434 255.671 201.078C254.298 199.186 252 194.524 253.608 185.788C255.817 173.782 267.512 169.923 267.512 169.923C256.974 172.218 252.593 181.223 251.59 188.425C251.525 185.548 251.997 182.671 253.082 179.994C255.52 173.97 260.677 169.462 266.64 167.071C272.701 164.641 279.336 164.501 285.634 166.054C297.982 169.095 308.644 178.894 310.705 191.731C311.045 193.852 311.174 196.012 311.104 198.172L311.101 198.164Z" fill="#F2C48D" fill-opacity="0.2"/>
<path d="M128.956 194.818C128.282 197.46 128.206 200.232 129.11 202.831C129.525 204.028 130.137 205.018 130.809 206.077C131.527 207.212 133.86 209.38 133.792 209.221C133.347 208.21 132.282 207.248 131.75 206.285C131.149 205.19 130.488 203.907 130.102 202.718C129.269 200.167 129.498 197.614 130.135 195.017C130.359 194.106 131.014 191.563 132.945 189.121C135.634 185.721 139.791 182.35 139.777 182.358C135.378 185.076 130.253 189.749 128.959 194.818H128.956Z" fill="#F2C48D" fill-opacity="0.2"/>
<path d="M65.418 55.9554C67.4463 57.6244 68.8623 60.0807 69.0673 62.7176C69.1914 64.3084 68.8839 66.1122 68.0909 67.4226C67.7376 68.0076 67.0417 68.8893 66.2865 69.4717C65.5313 70.0541 64.7194 70.3426 64.9109 70.3237C67.7457 70.0406 69.8117 67.6625 70.3943 64.9986C71.4678 60.0861 68.1395 55.0009 63.5488 53.3373C58.1787 51.3907 52.617 54.1058 48.7762 57.8455C48.5308 58.0827 54.06 54.4833 57.178 54.0087C60.0964 53.5638 63.093 54.0465 65.4153 55.9554H65.418Z" fill="#F2C48D" fill-opacity="0.2"/>
<path d="M91.6672 187.77C91.6429 187.796 91.6294 187.815 91.6294 187.815C91.6429 187.799 91.6564 187.786 91.6672 187.77Z" fill="#F2C48D" fill-opacity="0.2"/>
</g>
<defs>
<clipPath id="clip0_73_2820">
<path d="M0 0H266V189C266 200.046 257.046 209 246 209H0V0Z" fill="white"/>
</clipPath>
</defs>
</svg>
